# xmcd
#
# Track frame offsets: 
#        150
#        63457
#        131245
#        210432
#        257655
#
# Disc length: 4349 seconds
#
# Revision: 1
# Processed by: cddbd v1.5.2PL0 Copyright (c) Steve Scherf et al.
# Submitted via: ExactAudioCopy v1.3
#
DISCID=4710fb05
DTITLE=Lorin Maazel and Wiener Philharmoniker - Mahler Symphony No 5
DYEAR=1982
DGENRE=Classical
TTITLE0=Mahler Symphony No 5 - 1 Trauermarsch In gemessenem Schritt.St
TTITLE0=reng Wie ein Kondukt
TTITLE1=Mahler Symphony No 5 - 2 Sturmisch bewegt Mit grosster Vehemen
TTITLE1=z
TTITLE2=Mahler Symphony No 5 - 3 Scherzo Kraftig nicht zu schnell
TTITLE3=Mahler Symphony No 5 - 4 Adagietto Sehr langsam-
TTITLE4=Mahler Symphony No 5 - 5 Rondo-Finale Allegro
EXTD=
EXTT0=
EXTT1=
EXTT2=
EXTT3=
EXTT4=
PLAYORDER=
